<?xml version="1.0" standalone="no"?>
<!DOCTYPE svg PUBLIC "-//W3C//DTD SVG 20010904//EN"
 "http://www.w3.org/TR/2001/REC-SVG-20010904/DTD/svg10.dtd">
<svg version="1.0" xmlns="http://www.w3.org/2000/svg"
 width="700.000000pt" height="700.000000pt" viewBox="0 0 700.000000 700.000000"
 preserveAspectRatio="xMidYMid meet">
<metadata>
Created by potrace 1.14, written by Peter Selinger 2001-2017
</metadata>
<g transform="translate(0.000000,700.000000) scale(0.100000,-0.100000)"
fill="#000000" stroke="none">
<path d="M4004 4880 c-437 -46 -852 -315 -1060 -685 -22 -40 -41 -64 -49 -61
-130 50 -272 70 -434 63 -199 -9 -354 -59 -518 -167 -484 -318 -617 -968 -298
-1451 60 -90 187 -220 274 -278 84 -57 228 -125 320 -150 142 -39 245 -43
1171 -39 982 5 956 3 1167 73 475 158 818 544 925 1038 31 147 31 408 -1 557
-105 489 -451 877 -923 1035 -176 59 -396 84 -574 65z m352 -510 c324 -83 568
-323 655 -645 18 -65 22 -107 22 -225 0 -172 -18 -253 -88 -395 -135 -277
-402 -462 -711 -495 -65 -7 -397 -10 -959 -8 -798 3 -864 5 -915 22 -253 83
-413 311 -397 566 9 149 68 273 179 375 105 97 228 145 373 145 172 0 253 -40
487 -238 93 -79 172 -141 175 -139 3 3 31 111 62 239 32 128 72 263 89 300
127 279 393 474 707 518 83 12 233 2 321 -20z"/>
</g>
</svg>
