<svg width="1034" height="630" viewBox="0 0 1034 630" fill="none" xmlns="http://www.w3.org/2000/svg">
<path d="M720.999 158.601C720.999 230.652 662.59 289.061 590.539 289.061C528.494 289.06 466.449 289.061 404.404 289.061C353.923 289.061 312.999 248.137 312.999 197.655C312.999 147.174 353.923 106.25 404.404 106.25C427.018 106.25 447.713 114.462 463.672 128.066C477.418 70.7452 529.003 28.1406 590.539 28.1406C662.59 28.1406 720.999 86.5497 720.999 158.601Z" stroke="#72E6AE" stroke-width="56"/>
<path d="M943.789 629.861C931.73 629.861 921.242 626.922 912.325 621.045C903.408 615.066 896.466 607.111 891.501 597.181C886.637 587.149 884.205 576.053 884.205 563.893C884.205 551.733 886.637 540.687 891.501 530.757C896.466 520.725 903.408 512.719 912.325 506.741C921.242 500.762 931.73 497.773 943.789 497.773C951.794 497.773 958.888 499.039 965.069 501.573C971.25 504.005 976.266 506.943 980.117 510.389C983.968 513.733 986.298 516.823 987.109 519.661V417.061H1033.32V626.213H987.565V605.997C985.64 609.746 982.498 613.495 978.141 617.245C973.784 620.893 968.666 623.882 962.789 626.213C956.912 628.645 950.578 629.861 943.789 629.861ZM957.925 593.533C963.498 593.533 968.464 592.266 972.821 589.733C977.28 587.199 980.776 583.703 983.309 579.245C985.842 574.685 987.109 569.567 987.109 563.893C987.109 558.218 985.842 553.151 983.309 548.693C980.776 544.133 977.28 540.586 972.821 538.053C968.464 535.418 963.498 534.101 957.925 534.101C952.554 534.101 947.69 535.418 943.333 538.053C939.077 540.586 935.682 544.133 933.149 548.693C930.717 553.151 929.501 558.218 929.501 563.893C929.501 569.567 930.717 574.685 933.149 579.245C935.682 583.703 939.077 587.199 943.333 589.733C947.69 592.266 952.554 593.533 957.925 593.533Z" fill="white"/>
<path d="M767.514 559.18C767.514 569.111 769.389 577.065 773.138 583.044C776.888 588.921 783.17 591.86 791.986 591.86C801.005 591.86 807.338 588.921 810.986 583.044C814.736 577.065 816.61 569.111 816.61 559.18V501.42H862.21V564.044C862.21 577.42 859.424 589.073 853.85 599.004C848.378 608.833 840.424 616.433 829.986 621.804C819.549 627.175 806.882 629.86 791.986 629.86C777.192 629.86 764.576 627.175 754.138 621.804C743.701 616.433 735.746 608.833 730.274 599.004C724.802 589.073 722.066 577.42 722.066 564.044V501.42H767.514V559.18Z" fill="white"/>
<path d="M630.228 629.861C616.548 629.861 604.388 627.075 593.748 621.501C583.209 615.827 574.9 608.075 568.82 598.245C562.841 588.315 559.852 576.965 559.852 564.197C559.852 551.429 562.841 540.08 568.82 530.149C574.9 520.117 583.209 512.213 593.748 506.437C604.388 500.661 616.548 497.773 630.228 497.773C643.908 497.773 655.966 500.661 666.404 506.437C676.841 512.213 684.998 520.117 690.876 530.149C696.753 540.08 699.692 551.429 699.692 564.197C699.692 576.965 696.753 588.315 690.876 598.245C684.998 608.075 676.841 615.827 666.404 621.501C655.966 627.075 643.908 629.861 630.228 629.861ZM630.228 591.861C635.497 591.861 640.057 590.696 643.908 588.365C647.758 586.035 650.748 582.741 652.876 578.485C655.004 574.229 656.068 569.416 656.068 564.045C656.068 558.573 655.004 553.709 652.876 549.453C650.748 545.197 647.758 541.853 643.908 539.421C640.057 536.989 635.497 535.773 630.228 535.773C624.958 535.773 620.348 536.989 616.396 539.421C612.545 541.853 609.505 545.197 607.276 549.453C605.148 553.709 604.084 558.573 604.084 564.045C604.084 569.416 605.148 574.229 607.276 578.485C609.505 582.741 612.545 586.035 616.396 588.365C620.348 590.696 624.958 591.861 630.228 591.861Z" fill="white"/>
<path d="M536.9 626.213H490.54V417.061H536.9V626.213Z" fill="white"/>
<path d="M428.895 593.533C434.671 593.533 439.433 592.571 443.183 590.645C446.932 588.619 449.465 586.997 450.783 585.781L471.911 617.093C470.289 618.411 467.503 620.133 463.551 622.261C459.599 624.288 454.633 626.061 448.655 627.581C442.777 629.101 436.039 629.861 428.439 629.861C414.151 629.861 401.585 627.176 390.743 621.805C379.9 616.333 371.439 608.632 365.359 598.701C359.38 588.771 356.391 577.117 356.391 563.741C356.391 550.264 359.38 538.611 365.359 528.781C371.439 518.952 379.9 511.352 390.743 505.981C401.585 500.509 414.151 497.773 428.439 497.773C435.937 497.773 442.625 498.584 448.503 500.205C454.481 501.725 459.497 503.499 463.551 505.525C467.604 507.451 470.441 509.123 472.063 510.541L450.479 542.157C449.769 541.448 448.452 540.435 446.527 539.117C444.703 537.8 442.321 536.635 439.383 535.621C436.444 534.608 432.948 534.101 428.895 534.101C423.929 534.101 419.268 535.368 414.911 537.901C410.655 540.435 407.209 543.931 404.575 548.389C401.94 552.848 400.623 557.965 400.623 563.741C400.623 569.517 401.94 574.685 404.575 579.245C407.209 583.704 410.655 587.2 414.911 589.733C419.268 592.267 423.929 593.533 428.895 593.533Z" fill="white"/>
<path d="M240.177 501.421H261.457V450.197H307.209V501.421H335.177V539.421H307.209V574.229C307.209 579.397 307.969 583.603 309.489 586.845C311.009 589.987 313.795 591.557 317.849 591.557C320.585 591.557 322.915 590.949 324.841 589.733C326.766 588.517 327.931 587.707 328.337 587.301L344.145 620.133C343.435 620.741 341.206 621.856 337.457 623.477C333.809 625.099 329.147 626.568 323.473 627.885C317.798 629.203 311.465 629.861 304.473 629.861C292.009 629.861 281.723 626.365 273.617 619.373C265.51 612.28 261.457 601.387 261.457 586.693V539.421H240.177V501.421Z" fill="white"/>
<path d="M172.774 626.213V501.421H218.982V626.213H172.774ZM196.486 475.733C189.19 475.733 183.008 473.2 177.942 468.133C172.875 462.965 170.342 456.835 170.342 449.741C170.342 442.648 172.875 436.517 177.942 431.349C183.11 426.08 189.291 423.445 196.486 423.445C201.248 423.445 205.606 424.661 209.558 427.093C213.51 429.424 216.702 432.565 219.134 436.517C221.566 440.469 222.782 444.877 222.782 449.741C222.782 456.835 220.198 462.965 215.03 468.133C209.862 473.2 203.68 475.733 196.486 475.733Z" fill="white"/>
<path d="M0.681641 626.213V417.061H46.8896V519.661C47.8016 516.823 50.1323 513.733 53.8816 510.389C57.7323 506.943 62.7483 504.005 68.9296 501.573C75.2123 499.039 82.3056 497.773 90.2096 497.773C102.37 497.773 112.908 500.762 121.826 506.741C130.743 512.719 137.634 520.725 142.498 530.757C147.362 540.687 149.794 551.733 149.794 563.893C149.794 576.053 147.362 587.149 142.498 597.181C137.634 607.111 130.743 615.066 121.826 621.045C112.908 626.922 102.37 629.861 90.2096 629.861C83.5216 629.861 77.1883 628.645 71.2096 626.213C65.3323 623.882 60.215 620.893 55.8576 617.245C51.6016 613.495 48.4603 609.746 46.4336 605.997V626.213H0.681641ZM104.498 563.893C104.498 558.218 103.231 553.151 100.698 548.693C98.2656 544.133 94.871 540.586 90.5136 538.053C86.2576 535.418 81.4443 534.101 76.0736 534.101C70.5003 534.101 65.4843 535.418 61.0256 538.053C56.6683 540.586 53.223 544.133 50.6896 548.693C48.1563 553.151 46.8896 558.218 46.8896 563.893C46.8896 569.567 48.1563 574.685 50.6896 579.245C53.223 583.703 56.6683 587.199 61.0256 589.733C65.4843 592.266 70.5003 593.533 76.0736 593.533C81.4443 593.533 86.2576 592.266 90.5136 589.733C94.871 587.199 98.2656 583.703 100.698 579.245C103.231 574.685 104.498 569.567 104.498 563.893Z" fill="white"/>
</svg>
