<svg width="530" height="99" viewBox="0 0 530 99" fill="none" xmlns="http://www.w3.org/2000/svg">
<path d="M135.659 49.5C135.659 71.8675 117.527 90 95.1593 90C75.8981 89.9996 56.637 89.9999 37.3758 89.9999C21.7043 89.9999 9 77.2956 9 61.624C9 45.9525 21.7043 33.2482 37.3758 33.2482C44.3959 33.2482 50.8206 35.7975 55.7747 40.0208C60.042 22.2261 76.0561 9 95.1593 9C117.527 9 135.659 27.1325 135.659 49.5Z" stroke="#21212F" stroke-width="17.3846"/>
<path d="M498.989 86.0075C494.852 86.0075 491.253 84.9992 488.193 82.9826C485.134 80.9312 482.752 78.2018 481.048 74.7945C479.379 71.3523 478.545 67.5451 478.545 63.3728C478.545 59.2005 479.379 55.4106 481.048 52.0032C482.752 48.5611 485.134 45.8143 488.193 43.7629C491.253 41.7116 494.852 40.6859 498.989 40.6859C501.736 40.6859 504.17 41.1205 506.291 41.9897C508.412 42.8242 510.133 43.8325 511.454 45.0146C512.775 46.162 513.575 47.2225 513.853 48.196V12.9922H529.708V84.7558H514.009V77.8194C513.349 79.1058 512.271 80.3923 510.776 81.6788C509.281 82.9305 507.525 83.9561 505.508 84.7558C503.492 85.5903 501.319 86.0075 498.989 86.0075ZM503.839 73.5428C505.752 73.5428 507.456 73.1082 508.951 72.2389C510.48 71.3697 511.68 70.1702 512.549 68.6403C513.418 67.0757 513.853 65.3198 513.853 63.3728C513.853 61.4257 513.418 59.6872 512.549 58.1574C511.68 56.5928 510.48 55.3759 508.951 54.5066C507.456 53.6026 505.752 53.1506 503.839 53.1506C501.997 53.1506 500.328 53.6026 498.833 54.5066C497.372 55.3759 496.208 56.5928 495.338 58.1574C494.504 59.6872 494.087 61.4257 494.087 63.3728C494.087 65.3198 494.504 67.0757 495.338 68.6403C496.208 70.1702 497.372 71.3697 498.833 72.2389C500.328 73.1082 501.997 73.5428 503.839 73.5428Z" fill="#21212F"/>
<path d="M438.51 61.7559C438.51 65.1633 439.153 67.8927 440.44 69.9441C441.726 71.9607 443.882 72.969 446.907 72.969C450.001 72.969 452.174 71.9607 453.426 69.9441C454.712 67.8927 455.356 65.1633 455.356 61.7559V41.9375H471.002V63.4249C471.002 68.0144 470.046 72.0129 468.133 75.4202C466.256 78.7929 463.526 81.4005 459.945 83.2433C456.364 85.0861 452.018 86.0075 446.907 86.0075C441.83 86.0075 437.502 85.0861 433.92 83.2433C430.339 81.4005 427.61 78.7929 425.732 75.4202C423.855 72.0129 422.916 68.0144 422.916 63.4249V41.9375H438.51V61.7559Z" fill="#21212F"/>
<path d="M391.403 86.0053C386.709 86.0053 382.537 85.0491 378.886 83.1368C375.27 81.1897 372.419 78.5299 370.333 75.1573C368.282 71.7499 367.256 67.8557 367.256 63.4748C367.256 59.0939 368.282 55.1997 370.333 51.7924C372.419 48.3502 375.27 45.6382 378.886 43.6564C382.537 41.6745 386.709 40.6836 391.403 40.6836C396.097 40.6836 400.234 41.6745 403.816 43.6564C407.397 45.6382 410.196 48.3502 412.212 51.7924C414.229 55.1997 415.237 59.0939 415.237 63.4748C415.237 67.8557 414.229 71.7499 412.212 75.1573C410.196 78.5299 407.397 81.1897 403.816 83.1368C400.234 85.0491 396.097 86.0053 391.403 86.0053ZM391.403 72.9668C393.211 72.9668 394.776 72.567 396.097 71.7673C397.418 70.9676 398.444 69.8376 399.174 68.3773C399.904 66.917 400.269 65.2654 400.269 63.4227C400.269 61.5451 399.904 59.8762 399.174 58.4159C398.444 56.9556 397.418 55.8082 396.097 54.9737C394.776 54.1393 393.211 53.722 391.403 53.722C389.595 53.722 388.013 54.1393 386.657 54.9737C385.336 55.8082 384.293 56.9556 383.528 58.4159C382.798 59.8762 382.433 61.5451 382.433 63.4227C382.433 65.2654 382.798 66.917 383.528 68.3773C384.293 69.8376 385.336 70.9676 386.657 71.7673C388.013 72.567 389.595 72.9668 391.403 72.9668Z" fill="#21212F"/>
<path d="M359.38 84.7558H343.473V12.9922H359.38V84.7558Z" fill="#21212F"/>
<path d="M322.327 73.5405C324.308 73.5405 325.943 73.2102 327.229 72.5496C328.516 71.8542 329.385 71.2979 329.837 70.8806L337.086 81.6243C336.53 82.0763 335.574 82.6674 334.218 83.3976C332.862 84.0929 331.158 84.7014 329.107 85.2229C327.09 85.7445 324.778 86.0053 322.17 86.0053C317.268 86.0053 312.956 85.0839 309.236 83.2411C305.516 81.3636 302.612 78.7211 300.526 75.3137C298.475 71.9063 297.449 67.9079 297.449 63.3183C297.449 58.694 298.475 54.6956 300.526 51.323C302.612 47.9504 305.516 45.3427 309.236 43.4999C312.956 41.6224 317.268 40.6836 322.17 40.6836C324.743 40.6836 327.038 40.9617 329.054 41.5181C331.106 42.0396 332.827 42.6481 334.218 43.3434C335.608 44.0041 336.582 44.5777 337.138 45.0645L329.732 55.9125C329.489 55.6691 329.037 55.3214 328.376 54.8694C327.751 54.4174 326.934 54.0176 325.925 53.6699C324.917 53.3222 323.717 53.1484 322.327 53.1484C320.623 53.1484 319.024 53.583 317.528 54.4522C316.068 55.3214 314.886 56.521 313.982 58.0508C313.078 59.5807 312.626 61.3365 312.626 63.3183C312.626 65.3002 313.078 67.0734 313.982 68.638C314.886 70.1679 316.068 71.3674 317.528 72.2366C319.024 73.1059 320.623 73.5405 322.327 73.5405Z" fill="#21212F"/>
<path d="M257.568 41.9391H264.87V24.3633H280.568V41.9391H290.164V54.9776H280.568V66.9208C280.568 68.694 280.829 70.1369 281.35 71.2496C281.872 72.3274 282.828 72.8663 284.219 72.8663C285.158 72.8663 285.957 72.6577 286.618 72.2405C287.279 71.8232 287.678 71.5451 287.818 71.406L293.242 82.6712C292.998 82.8799 292.233 83.2623 290.947 83.8186C289.695 84.3749 288.096 84.8791 286.149 85.3311C284.202 85.7831 282.029 86.0091 279.629 86.0091C275.353 86.0091 271.824 84.8096 269.042 82.4105C266.261 79.9766 264.87 76.2389 264.87 71.1974V54.9776H257.568V41.9391Z" fill="#21212F"/>
<path d="M234.442 84.7607V41.9424H250.297V84.7607H234.442ZM242.578 33.1284C240.074 33.1284 237.954 32.2592 236.215 30.5207C234.477 28.7475 233.607 26.644 233.607 24.2101C233.607 21.7763 234.477 19.6727 236.215 17.8995C237.988 16.0915 240.109 15.1875 242.578 15.1875C244.212 15.1875 245.707 15.6047 247.063 16.4392C248.419 17.2389 249.514 18.3167 250.349 19.6727C251.183 21.0287 251.6 22.5412 251.6 24.2101C251.6 26.644 250.714 28.7475 248.941 30.5207C247.167 32.2592 245.046 33.1284 242.578 33.1284Z" fill="#21212F"/>
<path d="M175.395 84.7558V12.9922H191.249V48.196C191.562 47.2225 192.362 46.162 193.648 45.0146C194.97 43.8325 196.691 42.8242 198.812 41.9897C200.967 41.1205 203.401 40.6859 206.113 40.6859C210.285 40.6859 213.901 41.7116 216.961 43.7629C220.021 45.8143 222.385 48.5611 224.054 52.0032C225.723 55.4106 226.557 59.2005 226.557 63.3728C226.557 67.5451 225.723 71.3523 224.054 74.7945C222.385 78.2018 220.021 80.9312 216.961 82.9826C213.901 84.9992 210.285 86.0075 206.113 86.0075C203.818 86.0075 201.645 85.5903 199.594 84.7558C197.577 83.9561 195.821 82.9305 194.326 81.6788C192.866 80.3923 191.788 79.1058 191.093 77.8194V84.7558H175.395ZM211.016 63.3728C211.016 61.4257 210.581 59.6872 209.712 58.1574C208.877 56.5928 207.713 55.3759 206.217 54.5066C204.757 53.6026 203.106 53.1506 201.263 53.1506C199.351 53.1506 197.629 53.6026 196.1 54.5066C194.605 55.3759 193.422 56.5928 192.553 58.1574C191.684 59.6872 191.249 61.4257 191.249 63.3728C191.249 65.3198 191.684 67.0757 192.553 68.6403C193.422 70.1702 194.605 71.3697 196.1 72.2389C197.629 73.1082 199.351 73.5428 201.263 73.5428C203.106 73.5428 204.757 73.1082 206.217 72.2389C207.713 71.3697 208.877 70.1702 209.712 68.6403C210.581 67.0757 211.016 65.3198 211.016 63.3728Z" fill="#21212F"/>
</svg>
